<mxfile host="app.diagrams.net" modified="2020-12-25T23:03:26.034Z" agent="5.0 (X11)" etag="mb9138XYs185ueCA2Fsc" version="14.1.2" type="github">
  <diagram id="pKM5YOKNgXRmCLh0wDqG" name="Page-1">
    <mxGraphModel dx="1021" dy="579" grid="1" gridSize="10" guides="1" tooltips="1" connect="1" arrows="1" fold="1" page="1" pageScale="1" pageWidth="827" pageHeight="1169" math="0" shadow="0">
      <root>
        <mxCell id="0" />
        <mxCell id="1" parent="0" />
        <mxCell id="ssBFtIJNkS0qRHWKtSEX-1" value="weather-bot" style="text;html=1;strokeColor=none;fillColor=none;align=center;verticalAlign=middle;whiteSpace=wrap;rounded=0;fontSize=16;fontStyle=1" parent="1" vertex="1">
          <mxGeometry x="380" y="30" width="46" height="20" as="geometry" />
        </mxCell>
        <mxCell id="ssBFtIJNkS0qRHWKtSEX-11" style="edgeStyle=orthogonalEdgeStyle;rounded=0;orthogonalLoop=1;jettySize=auto;html=1;fontSize=14;" parent="1" source="ssBFtIJNkS0qRHWKtSEX-9" edge="1">
          <mxGeometry relative="1" as="geometry">
            <mxPoint x="520" y="200" as="targetPoint" />
          </mxGeometry>
        </mxCell>
        <mxCell id="ssBFtIJNkS0qRHWKtSEX-9" value="" style="rounded=1;whiteSpace=wrap;html=1;fontSize=16;fillColor=#f5f5f5;strokeColor=#666666;fontColor=#333333;" parent="1" vertex="1">
          <mxGeometry x="460" y="90" width="120" height="60" as="geometry" />
        </mxCell>
        <mxCell id="ssBFtIJNkS0qRHWKtSEX-10" value="&lt;div&gt;app&lt;/div&gt;" style="text;html=1;strokeColor=none;fillColor=none;align=center;verticalAlign=middle;whiteSpace=wrap;rounded=0;fontSize=14;" parent="1" vertex="1">
          <mxGeometry x="500" y="110" width="40" height="20" as="geometry" />
        </mxCell>
        <mxCell id="ssBFtIJNkS0qRHWKtSEX-24" value="&lt;p style=&quot;margin: 4px 0px 0px ; text-align: center ; text-decoration: underline ; font-size: 14px&quot;&gt;&lt;font style=&quot;font-size: 14px&quot;&gt;config.py&lt;br&gt;&lt;/font&gt;&lt;/p&gt;&lt;hr style=&quot;font-size: 14px&quot;&gt;&lt;p style=&quot;margin: 0px 0px 0px 8px&quot;&gt;&lt;font style=&quot;font-size: 12px&quot;&gt;- BOT_TOKEN&lt;br&gt;- API_TOKEN&lt;/font&gt;&lt;/p&gt;&lt;p style=&quot;margin: 0px 0px 0px 8px&quot;&gt;&lt;font style=&quot;font-size: 12px&quot;&gt;- ADMIN_ID&lt;br&gt;&lt;/font&gt;&lt;/p&gt;" style="verticalAlign=top;align=left;overflow=fill;fontSize=12;fontFamily=Helvetica;html=1;rounded=1;shadow=0;glass=0;strokeColor=#82b366;fillColor=#d5e8d4;" parent="1" vertex="1">
          <mxGeometry x="260" y="240" width="160" height="90" as="geometry" />
        </mxCell>
        <mxCell id="ssBFtIJNkS0qRHWKtSEX-25" value="" style="edgeStyle=segmentEdgeStyle;endArrow=classic;html=1;fontSize=14;entryX=0.5;entryY=0;entryDx=0;entryDy=0;exitX=0;exitY=0.5;exitDx=0;exitDy=0;" parent="1" source="ssBFtIJNkS0qRHWKtSEX-9" target="ssBFtIJNkS0qRHWKtSEX-24" edge="1">
          <mxGeometry width="50" height="50" relative="1" as="geometry">
            <mxPoint x="430" y="135" as="sourcePoint" />
            <mxPoint x="560" y="260" as="targetPoint" />
            <Array as="points">
              <mxPoint x="460" y="160" />
              <mxPoint x="340" y="160" />
            </Array>
          </mxGeometry>
        </mxCell>
        <mxCell id="ssBFtIJNkS0qRHWKtSEX-26" value="" style="edgeStyle=segmentEdgeStyle;endArrow=classic;html=1;fontSize=14;entryX=0.5;entryY=0;entryDx=0;entryDy=0;" parent="1" source="ssBFtIJNkS0qRHWKtSEX-1" target="ssBFtIJNkS0qRHWKtSEX-9" edge="1">
          <mxGeometry width="50" height="50" relative="1" as="geometry">
            <mxPoint x="490" y="80" as="sourcePoint" />
            <mxPoint x="540" y="30" as="targetPoint" />
          </mxGeometry>
        </mxCell>
        <mxCell id="ssBFtIJNkS0qRHWKtSEX-27" value="" style="edgeStyle=segmentEdgeStyle;endArrow=classic;html=1;fontSize=14;entryX=0.5;entryY=0;entryDx=0;entryDy=0;" parent="1" source="ssBFtIJNkS0qRHWKtSEX-1" target="02I28UT1SpjtK__Q-2QU-3" edge="1">
          <mxGeometry width="50" height="50" relative="1" as="geometry">
            <mxPoint x="250" y="80" as="sourcePoint" />
            <mxPoint x="280" y="90" as="targetPoint" />
            <Array as="points">
              <mxPoint x="210" y="40" />
            </Array>
          </mxGeometry>
        </mxCell>
        <mxCell id="02I28UT1SpjtK__Q-2QU-3" value="&lt;p style=&quot;margin: 4px 0px 0px ; text-align: center ; text-decoration: underline ; font-size: 14px&quot;&gt;&lt;font style=&quot;font-size: 14px&quot;&gt;bot.py&lt;br&gt;&lt;/font&gt;&lt;/p&gt;&lt;hr style=&quot;font-size: 14px&quot;&gt;&lt;p style=&quot;margin: 0px 0px 0px 8px&quot;&gt;&lt;font style=&quot;font-size: 12px&quot;&gt;- ...&lt;br&gt;&lt;/font&gt;&lt;/p&gt;" style="verticalAlign=top;align=left;overflow=fill;fontSize=12;fontFamily=Helvetica;html=1;rounded=1;shadow=0;glass=0;strokeColor=#82b366;fillColor=#d5e8d4;" vertex="1" parent="1">
          <mxGeometry x="140" y="90" width="150" height="100" as="geometry" />
        </mxCell>
        <mxCell id="02I28UT1SpjtK__Q-2QU-4" value="&lt;p style=&quot;margin: 4px 0px 0px ; text-align: center ; text-decoration: underline ; font-size: 14px&quot;&gt;&lt;font style=&quot;font-size: 14px&quot;&gt;keyboards.py&lt;br&gt;&lt;/font&gt;&lt;/p&gt;&lt;hr style=&quot;font-size: 14px&quot;&gt;&lt;p style=&quot;margin: 0px 0px 0px 8px&quot;&gt;&lt;font style=&quot;font-size: 12px&quot;&gt;- ...&lt;br&gt;&lt;/font&gt;&lt;/p&gt;" style="verticalAlign=top;align=left;overflow=fill;fontSize=12;fontFamily=Helvetica;html=1;rounded=1;shadow=0;glass=0;strokeColor=#82b366;fillColor=#d5e8d4;" vertex="1" parent="1">
          <mxGeometry x="460" y="200" width="120" height="140" as="geometry" />
        </mxCell>
        <mxCell id="02I28UT1SpjtK__Q-2QU-5" value="&lt;p style=&quot;margin: 4px 0px 0px ; text-align: center ; text-decoration: underline ; font-size: 14px&quot;&gt;&lt;font style=&quot;font-size: 14px&quot;&gt;utils.py&lt;br&gt;&lt;/font&gt;&lt;/p&gt;&lt;hr style=&quot;font-size: 14px&quot;&gt;&lt;p style=&quot;margin: 0px 0px 0px 8px&quot;&gt;&lt;font style=&quot;font-size: 12px&quot;&gt;- city to lat, lon&lt;br&gt;- Картинки погоды в &lt;br&gt;utf8 емоджи&lt;br&gt;- Выбор PART для &lt;br&gt;&lt;/font&gt;&lt;/p&gt;&lt;p style=&quot;margin: 0px 0px 0px 8px&quot;&gt;&lt;font style=&quot;font-size: 12px&quot;&gt;режима погоды&lt;br&gt;&lt;br&gt;&lt;/font&gt;&lt;/p&gt;" style="verticalAlign=top;align=left;overflow=fill;fontSize=12;fontFamily=Helvetica;html=1;rounded=1;shadow=0;glass=0;strokeColor=#82b366;fillColor=#d5e8d4;" vertex="1" parent="1">
          <mxGeometry x="620" y="240" width="160" height="120" as="geometry" />
        </mxCell>
        <mxCell id="02I28UT1SpjtK__Q-2QU-6" value="" style="edgeStyle=segmentEdgeStyle;endArrow=classic;html=1;fontSize=14;exitX=0;exitY=0.5;exitDx=0;exitDy=0;entryX=0.5;entryY=0;entryDx=0;entryDy=0;" edge="1" parent="1" target="02I28UT1SpjtK__Q-2QU-5">
          <mxGeometry width="50" height="50" relative="1" as="geometry">
            <mxPoint x="580" y="120" as="sourcePoint" />
            <mxPoint x="460" y="240" as="targetPoint" />
            <Array as="points">
              <mxPoint x="580" y="160" />
              <mxPoint x="700" y="160" />
            </Array>
          </mxGeometry>
        </mxCell>
        <mxCell id="02I28UT1SpjtK__Q-2QU-7" value="" style="edgeStyle=segmentEdgeStyle;endArrow=classic;html=1;" edge="1" parent="1" source="ssBFtIJNkS0qRHWKtSEX-9">
          <mxGeometry width="50" height="50" relative="1" as="geometry">
            <mxPoint x="440" y="370" as="sourcePoint" />
            <mxPoint x="440" y="440" as="targetPoint" />
            <Array as="points">
              <mxPoint x="490" y="190" />
              <mxPoint x="440" y="190" />
              <mxPoint x="440" y="440" />
            </Array>
          </mxGeometry>
        </mxCell>
        <mxCell id="02I28UT1SpjtK__Q-2QU-8" value="" style="edgeStyle=segmentEdgeStyle;endArrow=classic;html=1;exitX=0.75;exitY=1;exitDx=0;exitDy=0;" edge="1" parent="1" source="ssBFtIJNkS0qRHWKtSEX-9">
          <mxGeometry width="50" height="50" relative="1" as="geometry">
            <mxPoint x="540" y="420" as="sourcePoint" />
            <mxPoint x="600" y="440" as="targetPoint" />
            <Array as="points">
              <mxPoint x="550" y="190" />
              <mxPoint x="600" y="190" />
              <mxPoint x="600" y="440" />
            </Array>
          </mxGeometry>
        </mxCell>
        <mxCell id="02I28UT1SpjtK__Q-2QU-10" value="" style="edgeStyle=segmentEdgeStyle;endArrow=classic;html=1;" edge="1" parent="1">
          <mxGeometry width="50" height="50" relative="1" as="geometry">
            <mxPoint x="476" y="150" as="sourcePoint" />
            <mxPoint x="280" y="440" as="targetPoint" />
            <Array as="points">
              <mxPoint x="476" y="180" />
              <mxPoint x="430" y="180" />
              <mxPoint x="430" y="340" />
              <mxPoint x="280" y="340" />
            </Array>
          </mxGeometry>
        </mxCell>
        <mxCell id="02I28UT1SpjtK__Q-2QU-14" value="" style="rounded=1;whiteSpace=wrap;html=1;fontSize=16;fillColor=#f5f5f5;strokeColor=#666666;fontColor=#333333;" vertex="1" parent="1">
          <mxGeometry x="220" y="440" width="120" height="60" as="geometry" />
        </mxCell>
        <mxCell id="02I28UT1SpjtK__Q-2QU-15" value="handlers" style="text;html=1;strokeColor=none;fillColor=none;align=center;verticalAlign=middle;whiteSpace=wrap;rounded=0;fontSize=14;" vertex="1" parent="1">
          <mxGeometry x="260" y="460" width="40" height="20" as="geometry" />
        </mxCell>
        <mxCell id="02I28UT1SpjtK__Q-2QU-16" value="" style="rounded=1;whiteSpace=wrap;html=1;fontSize=16;fillColor=#f5f5f5;strokeColor=#666666;fontColor=#333333;" vertex="1" parent="1">
          <mxGeometry x="380" y="440" width="120" height="60" as="geometry" />
        </mxCell>
        <mxCell id="02I28UT1SpjtK__Q-2QU-17" value="services" style="text;html=1;strokeColor=none;fillColor=none;align=center;verticalAlign=middle;whiteSpace=wrap;rounded=0;fontSize=14;" vertex="1" parent="1">
          <mxGeometry x="420" y="460" width="40" height="20" as="geometry" />
        </mxCell>
        <mxCell id="02I28UT1SpjtK__Q-2QU-18" value="" style="rounded=1;whiteSpace=wrap;html=1;fontSize=16;fillColor=#f5f5f5;strokeColor=#666666;fontColor=#333333;" vertex="1" parent="1">
          <mxGeometry x="540" y="440" width="120" height="60" as="geometry" />
        </mxCell>
        <mxCell id="02I28UT1SpjtK__Q-2QU-19" value="text" style="text;html=1;strokeColor=none;fillColor=none;align=center;verticalAlign=middle;whiteSpace=wrap;rounded=0;fontSize=14;" vertex="1" parent="1">
          <mxGeometry x="580" y="460" width="40" height="20" as="geometry" />
        </mxCell>
        <mxCell id="02I28UT1SpjtK__Q-2QU-20" value="" style="edgeStyle=segmentEdgeStyle;endArrow=classic;html=1;fontSize=14;entryX=0.5;entryY=0;entryDx=0;entryDy=0;" edge="1" parent="1" target="02I28UT1SpjtK__Q-2QU-21">
          <mxGeometry width="50" height="50" relative="1" as="geometry">
            <mxPoint x="220" y="40.058823529411825" as="sourcePoint" />
            <mxPoint x="50" y="90" as="targetPoint" />
            <Array as="points">
              <mxPoint x="70" y="40" />
            </Array>
          </mxGeometry>
        </mxCell>
        <mxCell id="02I28UT1SpjtK__Q-2QU-21" value="&lt;p style=&quot;margin: 4px 0px 0px ; text-align: center ; text-decoration: underline ; font-size: 14px&quot;&gt;&lt;font style=&quot;font-size: 14px&quot;&gt;misc.py&lt;br&gt;&lt;/font&gt;&lt;/p&gt;&lt;hr style=&quot;font-size: 14px&quot;&gt;&lt;p style=&quot;margin: 0px 0px 0px 8px&quot;&gt;&lt;font style=&quot;font-size: 12px&quot;&gt;- ...&lt;br&gt;&lt;/font&gt;&lt;/p&gt;" style="verticalAlign=top;align=left;overflow=fill;fontSize=12;fontFamily=Helvetica;html=1;rounded=1;shadow=0;glass=0;strokeColor=#82b366;fillColor=#d5e8d4;" vertex="1" parent="1">
          <mxGeometry x="10" y="90" width="120" height="140" as="geometry" />
        </mxCell>
      </root>
    </mxGraphModel>
  </diagram>
</mxfile>
